<?xml version="1.0" encoding="UTF-8" standalone="no"?>
<svg
   width="100mm"
   height="100mm"
   viewBox="0 0 283.46455 283.46457"
   version="1.2"
   id="svg37"
   sodipodi:docname="abraflexi-contract-invoices.svg"
   inkscape:version="1.2.2 (b0a8486541, 2022-12-01)"
   xmlns:inkscape="http://www.inkscape.org/namespaces/inkscape"
   xmlns:sodipodi="http://sodipodi.sourceforge.net/DTD/sodipodi-0.dtd"
   xmlns="http://www.w3.org/2000/svg"
   xmlns:svg="http://www.w3.org/2000/svg"
   xmlns:rdf="http://www.w3.org/1999/02/22-rdf-syntax-ns#"
   xmlns:cc="http://creativecommons.org/ns#"
   xmlns:dc="http://purl.org/dc/elements/1.1/">
  <metadata
     id="metadata43">
    <rdf:RDF>
      <cc:Work
         rdf:about="">
        <dc:format>image/svg+xml</dc:format>
        <dc:type
           rdf:resource="http://purl.org/dc/dcmitype/StillImage" />
        <dc:title />
      </cc:Work>
    </rdf:RDF>
  </metadata>
  <defs
     id="defs41">
    <filter
       y="-0.25"
       height="1.5"
       inkscape:menu-tooltip="Darkens the edge with an inner blur and adds a flexible glow"
       inkscape:menu="Shadows and Glows"
       inkscape:label="Dark and Glow"
       style="color-interpolation-filters:sRGB;"
       id="filter989">
      <feGaussianBlur
         stdDeviation="5"
         result="result6"
         id="feGaussianBlur979" />
      <feComposite
         result="result8"
         in="SourceGraphic"
         operator="atop"
         in2="result6"
         id="feComposite981" />
      <feComposite
         result="result9"
         operator="over"
         in2="SourceAlpha"
         in="result8"
         id="feComposite983" />
      <feColorMatrix
         values="1 0 0 0 0 0 1 0 0 0 0 0 1 0 0 0 0 0 1 0 "
         result="result10"
         id="feColorMatrix985" />
      <feBlend
         in="result10"
         mode="normal"
         in2="result6"
         id="feBlend987" />
    </filter>
    <filter
       inkscape:label="Growing Cells"
       inkscape:menu="Overlays"
       inkscape:menu-tooltip="Random rounded living cells like fill"
       style="color-interpolation-filters:sRGB;"
       id="filter2149">
      <feTurbulence
         type="fractalNoise"
         baseFrequency="0.1"
         numOctaves="3"
         result="result7"
         id="feTurbulence2131" />
      <feColorMatrix
         values="0"
         result="result8"
         type="saturate"
         id="feColorMatrix2133" />
      <feColorMatrix
         values="1 0 0 0 0 0 1 0 0 0 0 0 1 0 0 0 0 0 20 -12 "
         result="result6"
         type="matrix"
         id="feColorMatrix2135" />
      <feGaussianBlur
         stdDeviation="2"
         result="result5"
         in="result6"
         id="feGaussianBlur2137" />
      <feColorMatrix
         in="result5"
         values="1 0 0 0 0 0 1 0 0 0 0 0 1 0 0 0 0 0 10 -0.1 "
         result="result0"
         type="matrix"
         id="feColorMatrix2139" />
      <feComposite
         k1="0.8"
         k2="1"
         in2="SourceGraphic"
         operator="arithmetic"
         result="result3"
         in="result0"
         id="feComposite2141"
         k3="0"
         k4="0" />
      <feComposite
         operator="atop"
         in2="result8"
         id="feComposite2143" />
      <feBlend
         mode="normal"
         in2="SourceGraphic"
         result="result9"
         id="feBlend2145" />
      <feComposite
         in="result9"
         in2="SourceGraphic"
         operator="atop"
         result="result2"
         id="feComposite2147" />
    </filter>
    <clipPath
       clipPathUnits="userSpaceOnUse"
       id="clipPath210">
      <path
         d="M 64.09713,512 H 447.9029 c 22.2879,0 30.3701,-2.3206 38.5182,-6.6783 8.1482,-4.3577 14.5429,-10.7524 18.9006,-18.9006 C 509.6794,478.273 512,470.1908 512,447.9029 V 64.09713 C 512,41.80916 509.6794,33.72701 505.3217,25.57886 500.964,17.43071 494.5693,11.03599 486.4211,6.678318 478.273,2.32064 470.1908,0 447.9029,0 H 64.09713 C 41.80916,0 33.72701,2.32064 25.57886,6.678318 17.43071,11.03599 11.03599,17.43071 6.678318,25.57886 2.32064,33.72701 0,41.80916 0,64.09713 V 447.9029 c 0,22.2879 2.32064,30.3701 6.678318,38.5182 4.357672,8.1482 10.752392,14.5429 18.900542,18.9006 8.14815,4.3577 16.2303,6.6783 38.51827,6.6783 z"
         clip-rule="evenodd"
         id="path208" />
    </clipPath>
    <clipPath
       clipPathUnits="userSpaceOnUse"
       id="clipPath216">
      <path
         d="M 0,0 H 512 V 512 H 0 Z"
         id="path214" />
    </clipPath>
    <clipPath
       clipPathUnits="userSpaceOnUse"
       id="clipPath226">
      <path
         d="M 310.6214,362 424.7089,162.0939 H 310.6961 l -57.0086,99.4988 z"
         clip-rule="evenodd"
         id="path224" />
    </clipPath>
    <clipPath
       clipPathUnits="userSpaceOnUse"
       id="clipPath232">
      <path
         d="M 0,0 H 512 V 512 H 0 Z"
         id="path230" />
    </clipPath>
    <clipPath
       clipPathUnits="userSpaceOnUse"
       id="clipPath242">
      <path
         d="M 197.1006,362 83.51535,162.0939 H 197.1006 L 310.6214,362 Z"
         clip-rule="evenodd"
         id="path240" />
    </clipPath>
    <clipPath
       clipPathUnits="userSpaceOnUse"
       id="clipPath248">
      <path
         d="M 0,0 H 512 V 512 H 0 Z"
         id="path246" />
    </clipPath>
    <clipPath
       clipPathUnits="userSpaceOnUse"
       id="clipPath440">
      <path
         d="M 64.09713,512 H 447.9029 c 22.2879,0 30.3701,-2.3206 38.5182,-6.6783 8.1482,-4.3577 14.5429,-10.7524 18.9006,-18.9006 C 509.6794,478.273 512,470.1908 512,447.9029 V 64.09713 C 512,41.80916 509.6794,33.72701 505.3217,25.57886 500.964,17.43071 494.5693,11.03599 486.4211,6.678318 478.273,2.32064 470.1908,0 447.9029,0 H 64.09713 C 41.80916,0 33.72701,2.32064 25.57886,6.678318 17.43071,11.03599 11.03599,17.43071 6.678318,25.57886 2.32064,33.72701 0,41.80916 0,64.09713 V 447.9029 c 0,22.2879 2.32064,30.3701 6.678318,38.5182 4.357672,8.1482 10.752392,14.5429 18.900542,18.9006 8.14815,4.3577 16.2303,6.6783 38.51827,6.6783 z"
         clip-rule="evenodd"
         id="path438" />
    </clipPath>
    <clipPath
       clipPathUnits="userSpaceOnUse"
       id="clipPath444">
      <path
         d="M 0,0 H 512 V 512 H 0 Z"
         id="path442" />
    </clipPath>
    <clipPath
       clipPathUnits="userSpaceOnUse"
       id="clipPath448">
      <path
         d="M 310.6214,362 424.7089,162.0939 H 310.6961 l -57.0086,99.4988 z"
         clip-rule="evenodd"
         id="path446" />
    </clipPath>
    <clipPath
       clipPathUnits="userSpaceOnUse"
       id="clipPath452">
      <path
         d="M 0,0 H 512 V 512 H 0 Z"
         id="path450" />
    </clipPath>
    <clipPath
       clipPathUnits="userSpaceOnUse"
       id="clipPath456">
      <path
         d="M 197.1006,362 83.51535,162.0939 H 197.1006 L 310.6214,362 Z"
         clip-rule="evenodd"
         id="path454" />
    </clipPath>
    <clipPath
       clipPathUnits="userSpaceOnUse"
       id="clipPath460">
      <path
         d="M 0,0 H 512 V 512 H 0 Z"
         id="path458" />
    </clipPath>
  </defs>
  <sodipodi:namedview
     pagecolor="#ffffff"
     bordercolor="#666666"
     borderopacity="1"
     objecttolerance="10"
     gridtolerance="10"
     guidetolerance="10"
     inkscape:pageopacity="0"
     inkscape:pageshadow="2"
     inkscape:window-width="1920"
     inkscape:window-height="1120"
     id="namedview39"
     showgrid="false"
     inkscape:zoom="2"
     inkscape:cx="240"
     inkscape:cy="171.25"
     inkscape:window-x="0"
     inkscape:window-y="0"
     inkscape:window-maximized="1"
     inkscape:current-layer="svg37"
     units="mm"
     width="100mm"
     showguides="true"
     inkscape:guide-bbox="true"
     inkscape:showpageshadow="2"
     inkscape:pagecheckerboard="0"
     inkscape:deskcolor="#d1d1d1"
     inkscape:document-units="mm">
    <sodipodi:guide
       position="359.24999,13.464566"
       orientation="0,1"
       id="guide2107"
       inkscape:locked="false" />
  </sodipodi:namedview>
  <g
     id="g418"
     transform="matrix(0.53710934,0,0,-0.53710934,4.23229,279.23227)">
    <g
       id="g340" />
    <g
       id="g348">
      <g
         id="g346"
         clip-path="url(#clipPath210)">
        <g
           id="g344"
           clip-path="url(#clipPath216)">
          <path
             d="M -1,513 H 513 V -1 H -1 Z"
             style="fill:#f6b102;fill-opacity:1;fill-rule:nonzero;stroke:none"
             id="path342" />
        </g>
      </g>
    </g>
    <g
       id="g356">
      <g
         id="g354"
         clip-path="url(#clipPath226)">
        <g
           id="g352"
           clip-path="url(#clipPath232)">
          <path
             d="M 252.6875,363 H 425.7089 V 161.0939 H 252.6875 Z"
             style="fill:#fdebbf;fill-opacity:1;fill-rule:nonzero;stroke:none"
             id="path350" />
        </g>
      </g>
    </g>
    <g
       id="g364">
      <g
         id="g362"
         clip-path="url(#clipPath242)">
        <g
           id="g360"
           clip-path="url(#clipPath248)">
          <path
             d="M 82.51535,363 H 311.6214 V 161.0939 H 82.51535 Z"
             style="fill:#ffffff;fill-opacity:1;fill-rule:nonzero;stroke:none"
             id="path358" />
        </g>
      </g>
    </g>
    <g
       id="g366" />
    <g
       id="g374">
      <g
         id="g372"
         clip-path="url(#clipPath210)">
        <g
           id="g370"
           clip-path="url(#clipPath216)">
          <path
             d="M -1,513 H 513 V -1 H -1 Z"
             style="fill:#f6b102;fill-opacity:1;fill-rule:nonzero;stroke:none"
             id="path368" />
        </g>
      </g>
    </g>
    <g
       id="g382">
      <g
         id="g380"
         clip-path="url(#clipPath226)">
        <g
           id="g378"
           clip-path="url(#clipPath232)">
          <path
             d="M 252.6875,363 H 425.7089 V 161.0939 H 252.6875 Z"
             style="fill:#fdebbf;fill-opacity:1;fill-rule:nonzero;stroke:none"
             id="path376" />
        </g>
      </g>
    </g>
    <g
       id="g390">
      <g
         id="g388"
         clip-path="url(#clipPath242)">
        <g
           id="g386"
           clip-path="url(#clipPath248)">
          <path
             d="M 82.51535,363 H 311.6214 V 161.0939 H 82.51535 Z"
             style="fill:#ffffff;fill-opacity:1;fill-rule:nonzero;stroke:none"
             id="path384" />
        </g>
      </g>
    </g>
  </g>
  <g
     id="g842"
     transform="translate(15.165571)">
    <path
       inkscape:connector-curvature="0"
       d="M 52.910441,219.10966 V 200.93348 H 26.180765 c -1.777523,0 -3.20756,1.43003 -3.20756,3.20756 v 62.01285 c 0,1.77752 1.430037,3.20756 3.20756,3.20756 h 44.905857 c 1.777522,0 3.207553,-1.43004 3.207553,-3.20756 V 222.31722 H 56.117998 c -1.764154,0 -3.207557,-1.4434 -3.207557,-3.20756 z m -21.383739,-8.55349 c 0,-0.59073 0.478458,-1.0692 1.069186,-1.0692 h 10.69187 c 0.590725,0 1.069187,0.47847 1.069187,1.0692 v 2.13836 c 0,0.59073 -0.478462,1.06919 -1.069187,1.06919 h -10.69187 c -0.590728,0 -1.069186,-0.47846 -1.069186,-1.06919 z m 0,8.55349 c 0,-0.59072 0.478458,-1.06918 1.069186,-1.06918 h 10.69187 c 0.590725,0 1.069187,0.47846 1.069187,1.06918 v 2.13837 c 0,0.59073 -0.478462,1.06919 -1.069187,1.06919 h -10.69187 c -0.590728,0 -1.069186,-0.47846 -1.069186,-1.06919 z m 25.76874,33.14479 h 6.306869 c 1.181448,0 2.138375,0.95693 2.138375,2.13838 0,1.18145 -0.956927,2.13837 -2.138375,2.13837 h -6.306869 c -2.198516,0 -4.179184,-1.22154 -5.164172,-3.18885 -0.394263,-0.7912 -1.081214,-0.87138 -1.359203,-0.87138 -0.277989,0 -0.964939,0.0789 -1.339158,0.82727 l -1.025081,2.05017 a 2.136503,2.136503 0 0 1 -1.912509,1.18146 c -0.05078,0 -0.100236,-0.003 -0.152358,-0.007 -0.862033,-0.0601 -1.603783,-0.63484 -1.875088,-1.45542 l -2.249302,-6.74392 -1.418011,4.26072 c -0.787188,2.36023 -2.991051,3.94664 -5.479581,3.94664 h -1.655903 c -1.181453,0 -2.138374,-0.95693 -2.138374,-2.13838 0,-1.18144 0.956921,-2.13837 2.138374,-2.13837 h 1.655903 c 0.645522,0 1.217536,-0.41164 1.422019,-1.02376 l 2.431064,-7.30254 c 0.441037,-1.31108 1.662587,-2.19316 3.044509,-2.19316 1.381922,0 2.603469,0.88074 3.043176,2.19316 l 1.855038,5.56513 c 2.642228,-2.16377 7.223693,-1.2964 8.820788,1.89246 0.269971,0.54261 0.796545,0.86871 1.357869,0.86871 z m 16.0632,-37.28789 -13.084176,-13.09754 c -0.601421,-0.60142 -1.416673,-0.93554 -2.272025,-0.93554 H 57.18719 v 17.107 h 17.106985 v -0.81526 c 0,-0.84199 -0.334113,-1.65725 -0.935533,-2.25866 z"
       id="path939"
       style="stroke-width:0.133649" />
    <path
       inkscape:connector-curvature="0"
       d="m 217.32996,235.47982 h -25.66049 v 8.5535 h 25.66049 z m 11.89471,-20.1809 -13.08417,-13.09755 c -0.60143,-0.60142 -1.41668,-0.93553 -2.27203,-0.93553 h -0.81526 v 17.107 h 17.107 v -0.81527 c 0,-0.84198 -0.33412,-1.65724 -0.93554,-2.25865 z m -20.44821,4.14309 v -18.17617 h -26.72967 c -1.77752,0 -3.20756,1.43003 -3.20756,3.20756 v 62.01284 c 0,1.77753 1.43004,3.20757 3.20756,3.20757 h 44.90585 c 1.77754,0 3.20757,-1.43004 3.20757,-3.20757 v -43.83666 h -18.17618 c -1.76416,0 -3.20757,-1.4434 -3.20757,-3.20757 z m -21.38374,-8.55349 c 0,-0.59072 0.47847,-1.06919 1.06919,-1.06919 h 10.69187 c 0.59072,0 1.06919,0.47847 1.06919,1.06919 v 2.13837 c 0,0.59072 -0.47847,1.06919 -1.06919,1.06919 h -10.69187 c -0.59072,0 -1.06919,-0.47847 -1.06919,-1.06919 z m 0,8.55349 c 0,-0.59072 0.47847,-1.06917 1.06919,-1.06917 h 10.69187 c 0.59072,0 1.06919,0.47845 1.06919,1.06917 v 2.13837 c 0,0.59074 -0.47847,1.0692 -1.06919,1.0692 h -10.69187 c -0.59072,0 -1.06919,-0.47846 -1.06919,-1.0692 z m 34.214,40.62911 c 0,0.59073 -0.47847,1.06919 -1.0692,1.06919 h -10.69187 c -0.59073,0 -1.06919,-0.47846 -1.06919,-1.06919 v -2.13838 c 0,-0.59072 0.47846,-1.06918 1.06919,-1.06918 h 10.69187 c 0.59073,0 1.0692,0.47846 1.0692,1.06918 z m 0,-26.72968 v 12.83025 c 0,1.18146 -0.95694,2.13837 -2.13839,2.13837 H 189.5311 c -1.18146,0 -2.13838,-0.95691 -2.13838,-2.13837 v -12.83025 c 0,-1.18144 0.95692,-2.13836 2.13838,-2.13836 h 29.93723 c 1.18145,0 2.13839,0.95692 2.13839,2.13836 z"
       id="path929"
       style="stroke-width:0.133649" />
    <g
       transform="matrix(-1.0230845,0.63123138,-0.63123138,-1.0230845,178.17368,253.10654)"
       id="g2236">
      <title
         id="title2233">Layer 1</title>
      <path
         style="fill:#7fff00;fill-rule:evenodd;stroke:#333333;stroke-width:1.80091;stroke-linecap:round;stroke-linejoin:round"
         inkscape:connector-curvature="0"
         d="M 54.659,51.7509 C 40.969799,21.7231 17.786699,28.7885 17.565799,28.7885 v 9.935598 L 4.207919,22.716699 17.6762,9.24837 v 10.046029 c 0,0 32.125298,-7.506899 36.9828,32.456501 z"
         id="path968" />
    </g>
  </g>
</svg>
