<?xml version="1.0" encoding="UTF-8" standalone="no"?>
<svg
   width="100"
   height="100"
   viewBox="0 0 100 100"
   fill="none"
   class="abui-icon-size-28px documentType"
   data-class="max400"
   data-html="true"
   data-isicon="true"
   tabindex="-1"
   version="1.1"
   id="svg1"
   sodipodi:docname="abraflexi-contract-liabilities.svg"
   inkscape:version="1.4 (e7c3feb100, 2024-10-09)"
   xmlns:inkscape="http://www.inkscape.org/namespaces/inkscape"
   xmlns:sodipodi="http://sodipodi.sourceforge.net/DTD/sodipodi-0.dtd"
   xmlns="http://www.w3.org/2000/svg"
   xmlns:svg="http://www.w3.org/2000/svg">
  <defs
     id="defs1">
    <clipPath
       clipPathUnits="userSpaceOnUse"
       id="clipPath210">
      <path
         d="M 64.09713,512 H 447.9029 c 22.2879,0 30.3701,-2.3206 38.5182,-6.6783 8.1482,-4.3577 14.5429,-10.7524 18.9006,-18.9006 C 509.6794,478.273 512,470.1908 512,447.9029 V 64.09713 C 512,41.80916 509.6794,33.72701 505.3217,25.57886 500.964,17.43071 494.5693,11.03599 486.4211,6.678318 478.273,2.32064 470.1908,0 447.9029,0 H 64.09713 C 41.80916,0 33.72701,2.32064 25.57886,6.678318 17.43071,11.03599 11.03599,17.43071 6.678318,25.57886 2.32064,33.72701 0,41.80916 0,64.09713 V 447.9029 c 0,22.2879 2.32064,30.3701 6.678318,38.5182 4.357672,8.1482 10.752392,14.5429 18.900542,18.9006 8.14815,4.3577 16.2303,6.6783 38.51827,6.6783 z"
         clip-rule="evenodd"
         id="path208" />
    </clipPath>
    <clipPath
       clipPathUnits="userSpaceOnUse"
       id="clipPath216">
      <path
         d="M 0,0 H 512 V 512 H 0 Z"
         id="path214" />
    </clipPath>
    <clipPath
       clipPathUnits="userSpaceOnUse"
       id="clipPath226">
      <path
         d="M 310.6214,362 424.7089,162.0939 H 310.6961 l -57.0086,99.4988 z"
         clip-rule="evenodd"
         id="path224" />
    </clipPath>
    <clipPath
       clipPathUnits="userSpaceOnUse"
       id="clipPath232">
      <path
         d="M 0,0 H 512 V 512 H 0 Z"
         id="path230" />
    </clipPath>
    <clipPath
       clipPathUnits="userSpaceOnUse"
       id="clipPath242">
      <path
         d="M 197.1006,362 83.51535,162.0939 H 197.1006 L 310.6214,362 Z"
         clip-rule="evenodd"
         id="path240" />
    </clipPath>
    <clipPath
       clipPathUnits="userSpaceOnUse"
       id="clipPath248">
      <path
         d="M 0,0 H 512 V 512 H 0 Z"
         id="path246" />
    </clipPath>
    <clipPath
       clipPathUnits="userSpaceOnUse"
       id="clipPath1">
      <path
         d="M 64.09713,512 H 447.9029 c 22.2879,0 30.3701,-2.3206 38.5182,-6.6783 8.1482,-4.3577 14.5429,-10.7524 18.9006,-18.9006 C 509.6794,478.273 512,470.1908 512,447.9029 V 64.09713 C 512,41.80916 509.6794,33.72701 505.3217,25.57886 500.964,17.43071 494.5693,11.03599 486.4211,6.678318 478.273,2.32064 470.1908,0 447.9029,0 H 64.09713 C 41.80916,0 33.72701,2.32064 25.57886,6.678318 17.43071,11.03599 11.03599,17.43071 6.678318,25.57886 2.32064,33.72701 0,41.80916 0,64.09713 V 447.9029 c 0,22.2879 2.32064,30.3701 6.678318,38.5182 4.357672,8.1482 10.752392,14.5429 18.900542,18.9006 8.14815,4.3577 16.2303,6.6783 38.51827,6.6783 z"
         clip-rule="evenodd"
         id="path1" />
    </clipPath>
    <clipPath
       clipPathUnits="userSpaceOnUse"
       id="clipPath2">
      <path
         d="M 0,0 H 512 V 512 H 0 Z"
         id="path2" />
    </clipPath>
    <clipPath
       clipPathUnits="userSpaceOnUse"
       id="clipPath3">
      <path
         d="M 310.6214,362 424.7089,162.0939 H 310.6961 l -57.0086,99.4988 z"
         clip-rule="evenodd"
         id="path3" />
    </clipPath>
    <clipPath
       clipPathUnits="userSpaceOnUse"
       id="clipPath4">
      <path
         d="M 0,0 H 512 V 512 H 0 Z"
         id="path4" />
    </clipPath>
    <clipPath
       clipPathUnits="userSpaceOnUse"
       id="clipPath5">
      <path
         d="M 197.1006,362 83.51535,162.0939 H 197.1006 L 310.6214,362 Z"
         clip-rule="evenodd"
         id="path5" />
    </clipPath>
    <clipPath
       clipPathUnits="userSpaceOnUse"
       id="clipPath6">
      <path
         d="M 0,0 H 512 V 512 H 0 Z"
         id="path6" />
    </clipPath>
  </defs>
  <sodipodi:namedview
     id="namedview1"
     pagecolor="#ffffff"
     bordercolor="#000000"
     borderopacity="0.25"
     inkscape:showpageshadow="2"
     inkscape:pageopacity="0.0"
     inkscape:pagecheckerboard="0"
     inkscape:deskcolor="#d1d1d1"
     inkscape:zoom="2.4002961"
     inkscape:cx="-22.497225"
     inkscape:cy="76.865517"
     inkscape:window-width="1920"
     inkscape:window-height="1120"
     inkscape:window-x="0"
     inkscape:window-y="0"
     inkscape:window-maximized="1"
     inkscape:current-layer="svg1" />
  <g
     id="g4"
     transform="matrix(0.93657462,0,0,0.93657462,34.642908,34.926734)">
    <g
       id="g2"
       transform="matrix(1.1316864,0,0,1.1316864,31.211455,35.410105)">
      <g
         id="ic_DocumentType">
        <path
           id="Combined-Shape"
           d="m 18,5 v 4 h 4 m -9,4.75 5,0.129 m -5,2.871 h 3 m -3,3 h 1 m -1,3 h 4 M 23.002,5 26,8 V 24 H 25 M 8,5 h 10 l 4,4 v 16 a 2,2 0 0 1 -2,2 H 8 A 2,2 0 0 1 6,25 V 7 A 2,2 0 0 1 8,5 Z"
           stroke="#111619"
           stroke-width="1.5"
           stroke-linecap="round"
           stroke-linejoin="round" />
        <path
           id="Combined-Shape_2"
           fill-rule="evenodd"
           clip-rule="evenodd"
           d="m 9.75,13 a 0.75,0.75 0 1 1 0,1.5 0.75,0.75 0 0 1 0,-1.5 z m 0,3 a 0.75,0.75 0 1 1 0,1.5 0.75,0.75 0 0 1 0,-1.5 z m 0,3 a 0.75,0.75 0 1 1 0,1.5 0.75,0.75 0 0 1 0,-1.5 z m 0,3 a 0.75,0.75 0 1 1 0,1.5 0.75,0.75 0 0 1 0,-1.5 z"
           fill="#111619" />
      </g>
      <g
         id="g1"
         transform="matrix(0.13734496,0,0,0.13734496,8.1710736,14.222968)">
        <text
           xml:space="preserve"
           style="font-size:96px;font-family:'Blogger Sans';-inkscape-font-specification:'Blogger Sans';text-align:start;writing-mode:lr-tb;direction:ltr;text-anchor:start;fill:#ff7f2a"
           x="12.225547"
           y="9.6110468"
           id="text1-0"><tspan
             sodipodi:role="line"
             id="tspan1-3"
             x="12.225547"
             y="9.6110468">!</tspan></text>
      </g>
    </g>
    <g
       id="g3"
       transform="matrix(1.0025336,0,0,1.0025336,97.112611,-74.10828)">
      <g
         id="g418"
         transform="matrix(0.14268991,0,0,-0.14268991,-118.40393,110.61568)">
        <g
           id="g340" />
        <g
           id="g348">
          <g
             id="g346"
             clip-path="url(#clipPath210)">
            <g
               id="g344"
               clip-path="url(#clipPath216)">
              <path
                 d="M -1,513 H 513 V -1 H -1 Z"
                 style="fill:#f6b102;fill-opacity:1;fill-rule:nonzero;stroke:none"
                 id="path342" />
            </g>
          </g>
        </g>
        <g
           id="g356">
          <g
             id="g354"
             clip-path="url(#clipPath226)">
            <g
               id="g352"
               clip-path="url(#clipPath232)">
              <path
                 d="M 252.6875,363 H 425.7089 V 161.0939 H 252.6875 Z"
                 style="fill:#fdebbf;fill-opacity:1;fill-rule:nonzero;stroke:none"
                 id="path350" />
            </g>
          </g>
        </g>
        <g
           id="g364">
          <g
             id="g362"
             clip-path="url(#clipPath242)">
            <g
               id="g360"
               clip-path="url(#clipPath248)">
              <path
                 d="M 82.51535,363 H 311.6214 V 161.0939 H 82.51535 Z"
                 style="fill:#ffffff;fill-opacity:1;fill-rule:nonzero;stroke:none"
                 id="path358" />
            </g>
          </g>
        </g>
        <g
           id="g366" />
        <g
           id="g374">
          <g
             id="g372"
             clip-path="url(#clipPath210)">
            <g
               id="g370"
               clip-path="url(#clipPath216)">
              <path
                 d="M -1,513 H 513 V -1 H -1 Z"
                 style="fill:#f6b102;fill-opacity:1;fill-rule:nonzero;stroke:none"
                 id="path368" />
            </g>
          </g>
        </g>
        <g
           id="g382">
          <g
             id="g380"
             clip-path="url(#clipPath226)">
            <g
               id="g378"
               clip-path="url(#clipPath232)">
              <path
                 d="M 252.6875,363 H 425.7089 V 161.0939 H 252.6875 Z"
                 style="fill:#fdebbf;fill-opacity:1;fill-rule:nonzero;stroke:none"
                 id="path376" />
            </g>
          </g>
        </g>
        <g
           id="g390">
          <g
             id="g388"
             clip-path="url(#clipPath242)">
            <g
               id="g386"
               clip-path="url(#clipPath248)">
              <path
                 d="M 82.51535,363 H 311.6214 V 161.0939 H 82.51535 Z"
                 style="fill:#ffffff;fill-opacity:1;fill-rule:nonzero;stroke:none"
                 id="path384" />
            </g>
          </g>
        </g>
      </g>
      <g
         id="g842"
         transform="matrix(0.39490399,0,0,0.39490399,-131.85702,35.887107)">
        <path
           inkscape:connector-curvature="0"
           d="M 52.910441,219.10966 V 200.93348 H 26.180765 c -1.777523,0 -3.20756,1.43003 -3.20756,3.20756 v 62.01285 c 0,1.77752 1.430037,3.20756 3.20756,3.20756 h 44.905857 c 1.777522,0 3.207553,-1.43004 3.207553,-3.20756 V 222.31722 H 56.117998 c -1.764154,0 -3.207557,-1.4434 -3.207557,-3.20756 z m -21.383739,-8.55349 c 0,-0.59073 0.478458,-1.0692 1.069186,-1.0692 h 10.69187 c 0.590725,0 1.069187,0.47847 1.069187,1.0692 v 2.13836 c 0,0.59073 -0.478462,1.06919 -1.069187,1.06919 h -10.69187 c -0.590728,0 -1.069186,-0.47846 -1.069186,-1.06919 z m 0,8.55349 c 0,-0.59072 0.478458,-1.06918 1.069186,-1.06918 h 10.69187 c 0.590725,0 1.069187,0.47846 1.069187,1.06918 v 2.13837 c 0,0.59073 -0.478462,1.06919 -1.069187,1.06919 h -10.69187 c -0.590728,0 -1.069186,-0.47846 -1.069186,-1.06919 z m 25.76874,33.14479 h 6.306869 c 1.181448,0 2.138375,0.95693 2.138375,2.13838 0,1.18145 -0.956927,2.13837 -2.138375,2.13837 h -6.306869 c -2.198516,0 -4.179184,-1.22154 -5.164172,-3.18885 -0.394263,-0.7912 -1.081214,-0.87138 -1.359203,-0.87138 -0.277989,0 -0.964939,0.0789 -1.339158,0.82727 l -1.025081,2.05017 a 2.136503,2.136503 0 0 1 -1.912509,1.18146 c -0.05078,0 -0.100236,-0.003 -0.152358,-0.007 -0.862033,-0.0601 -1.603783,-0.63484 -1.875088,-1.45542 l -2.249302,-6.74392 -1.418011,4.26072 c -0.787188,2.36023 -2.991051,3.94664 -5.479581,3.94664 h -1.655903 c -1.181453,0 -2.138374,-0.95693 -2.138374,-2.13838 0,-1.18144 0.956921,-2.13837 2.138374,-2.13837 h 1.655903 c 0.645522,0 1.217536,-0.41164 1.422019,-1.02376 l 2.431064,-7.30254 c 0.441037,-1.31108 1.662587,-2.19316 3.044509,-2.19316 1.381922,0 2.603469,0.88074 3.043176,2.19316 l 1.855038,5.56513 c 2.642228,-2.16377 7.223693,-1.2964 8.820788,1.89246 0.269971,0.54261 0.796545,0.86871 1.357869,0.86871 z m 16.0632,-37.28789 -13.084176,-13.09754 c -0.601421,-0.60142 -1.416673,-0.93554 -2.272025,-0.93554 H 57.18719 v 17.107 h 17.106985 v -0.81526 c 0,-0.84199 -0.334113,-1.65725 -0.935533,-2.25866 z"
           id="path939"
           style="stroke-width:0.133649" />
        <path
           inkscape:connector-curvature="0"
           d="m 217.32996,235.47982 h -25.66049 v 8.5535 h 25.66049 z m 11.89471,-20.1809 -13.08417,-13.09755 c -0.60143,-0.60142 -1.41668,-0.93553 -2.27203,-0.93553 h -0.81526 v 17.107 h 17.107 v -0.81527 c 0,-0.84198 -0.33412,-1.65724 -0.93554,-2.25865 z m -20.44821,4.14309 v -18.17617 h -26.72967 c -1.77752,0 -3.20756,1.43003 -3.20756,3.20756 v 62.01284 c 0,1.77753 1.43004,3.20757 3.20756,3.20757 h 44.90585 c 1.77754,0 3.20757,-1.43004 3.20757,-3.20757 v -43.83666 h -18.17618 c -1.76416,0 -3.20757,-1.4434 -3.20757,-3.20757 z m -21.38374,-8.55349 c 0,-0.59072 0.47847,-1.06919 1.06919,-1.06919 h 10.69187 c 0.59072,0 1.06919,0.47847 1.06919,1.06919 v 2.13837 c 0,0.59072 -0.47847,1.06919 -1.06919,1.06919 h -10.69187 c -0.59072,0 -1.06919,-0.47847 -1.06919,-1.06919 z m 0,8.55349 c 0,-0.59072 0.47847,-1.06917 1.06919,-1.06917 h 10.69187 c 0.59072,0 1.06919,0.47845 1.06919,1.06917 v 2.13837 c 0,0.59074 -0.47847,1.0692 -1.06919,1.0692 h -10.69187 c -0.59072,0 -1.06919,-0.47846 -1.06919,-1.0692 z m 34.214,40.62911 c 0,0.59073 -0.47847,1.06919 -1.0692,1.06919 h -10.69187 c -0.59073,0 -1.06919,-0.47846 -1.06919,-1.06919 v -2.13838 c 0,-0.59072 0.47846,-1.06918 1.06919,-1.06918 h 10.69187 c 0.59073,0 1.0692,0.47846 1.0692,1.06918 z m 0,-26.72968 v 12.83025 c 0,1.18146 -0.95694,2.13837 -2.13839,2.13837 H 189.5311 c -1.18146,0 -2.13838,-0.95691 -2.13838,-2.13837 v -12.83025 c 0,-1.18144 0.95692,-2.13836 2.13838,-2.13836 h 29.93723 c 1.18145,0 2.13839,0.95692 2.13839,2.13836 z"
           id="path929"
           style="stroke-width:0.133649" />
        <g
           transform="matrix(-1.0230845,0.63123138,-0.63123138,-1.0230845,178.17368,253.10654)"
           id="g2236">
          <title
             id="title2233">Layer 1</title>
          <path
             style="fill:#7fff00;fill-rule:evenodd;stroke:#333333;stroke-width:1.80091;stroke-linecap:round;stroke-linejoin:round"
             inkscape:connector-curvature="0"
             d="M 54.659,51.7509 C 40.969799,21.7231 17.786699,28.7885 17.565799,28.7885 v 9.935598 L 4.207919,22.716699 17.6762,9.24837 v 10.046029 c 0,0 32.125298,-7.506899 36.9828,32.456501 z"
             id="path968" />
        </g>
      </g>
    </g>
    <path
       inkscape:connector-curvature="0"
       d="M -17.813924,48.083354 V 41.48008 h -9.710693 c -0.64576,0 -1.165282,0.519522 -1.165282,1.165285 v 22.528807 c 0,0.64576 0.519522,1.165285 1.165282,1.165285 h 16.313965 c 0.645762,0 1.165279,-0.519525 1.165279,-1.165285 V 49.248635 h -6.603269 c -0.640904,0 -1.165282,-0.524376 -1.165282,-1.165281 z m -7.768554,-3.107422 c 0,-0.214614 0.173819,-0.38843 0.388428,-0.38843 h 3.884277 c 0.214607,0 0.388428,0.173812 0.388428,0.38843 v 0.776852 c 0,0.214614 -0.173822,0.388429 -0.388428,0.388429 h -3.884277 c -0.214607,0 -0.388428,-0.173812 -0.388428,-0.388429 z m 0,3.107422 c 0,-0.214614 0.173819,-0.388426 0.388428,-0.388426 h 3.884277 c 0.214607,0 0.388428,0.173812 0.388428,0.388426 v 0.776852 c 0,0.214614 -0.173822,0.388429 -0.388428,0.388429 h -3.884277 c -0.214607,0 -0.388428,-0.173812 -0.388428,-0.388429 z m 9.361593,12.041255 h 2.291239 c 0.429211,0 0.776855,0.347645 0.776855,0.776859 0,0.429211 -0.347644,0.776852 -0.776855,0.776852 h -2.291239 c -0.798705,0 -1.518267,-0.443775 -1.876106,-1.158484 -0.143233,-0.287438 -0.392796,-0.316567 -0.493788,-0.316567 -0.100992,0 -0.350555,0.02858 -0.486506,0.300556 l -0.372404,0.74481 a 0.77617571,0.77617571 0 0 1 -0.694801,0.429217 c -0.01846,0 -0.03642,-0.0011 -0.05535,-0.0025 -0.313171,-0.02169 -0.582643,-0.230625 -0.681205,-0.528743 l -0.817155,-2.450055 -0.515154,1.547888 c -0.285981,0.857454 -1.086626,1.433785 -1.990691,1.433785 h -0.601577 c -0.429214,0 -0.776856,-0.347645 -0.776856,-0.776855 0,-0.429211 0.347642,-0.776856 0.776856,-0.776856 h 0.601577 c 0.234515,0 0.442322,-0.149538 0.51661,-0.371926 l 0.883187,-2.652956 c 0.160225,-0.476306 0.604005,-0.796761 1.106048,-0.796761 0.502041,0 0.94582,0.319976 1.105563,0.796761 l 0.673921,2.021768 c 0.959901,-0.78608 2.624314,-0.47097 3.204527,0.687518 0.09808,0.197123 0.28938,0.315603 0.493304,0.315603 z m 5.835643,-13.546414 -4.753386,-4.758238 c -0.218491,-0.218505 -0.514666,-0.339877 -0.82541,-0.339877 h -0.296176 v 6.214848 h 6.214841 v -0.296183 c 0,-0.305893 -0.121379,-0.602066 -0.33987,-0.820553 z"
       id="path939-7"
       style="fill:#ff7f2a;stroke-width:0.0485538" />
  </g>
</svg>
