<?xml version="1.0" encoding="UTF-8" standalone="no"?>
<svg
   width="100"
   height="100"
   viewBox="0 0 100 100"
   fill="none"
   class="abui-icon-size-28px documentType"
   data-class="max400"
   data-html="true"
   data-isicon="true"
   tabindex="-1"
   version="1.1"
   id="svg1"
   sodipodi:docname="abraflexi-contract-receivables.svg"
   inkscape:version="1.4 (e7c3feb100, 2024-10-09)"
   xmlns:inkscape="http://www.inkscape.org/namespaces/inkscape"
   xmlns:sodipodi="http://sodipodi.sourceforge.net/DTD/sodipodi-0.dtd"
   xmlns="http://www.w3.org/2000/svg"
   xmlns:svg="http://www.w3.org/2000/svg">
  <defs
     id="defs1">
    <clipPath
       clipPathUnits="userSpaceOnUse"
       id="clipPath210">
      <path
         d="M 64.09713,512 H 447.9029 c 22.2879,0 30.3701,-2.3206 38.5182,-6.6783 8.1482,-4.3577 14.5429,-10.7524 18.9006,-18.9006 C 509.6794,478.273 512,470.1908 512,447.9029 V 64.09713 C 512,41.80916 509.6794,33.72701 505.3217,25.57886 500.964,17.43071 494.5693,11.03599 486.4211,6.678318 478.273,2.32064 470.1908,0 447.9029,0 H 64.09713 C 41.80916,0 33.72701,2.32064 25.57886,6.678318 17.43071,11.03599 11.03599,17.43071 6.678318,25.57886 2.32064,33.72701 0,41.80916 0,64.09713 V 447.9029 c 0,22.2879 2.32064,30.3701 6.678318,38.5182 4.357672,8.1482 10.752392,14.5429 18.900542,18.9006 8.14815,4.3577 16.2303,6.6783 38.51827,6.6783 z"
         clip-rule="evenodd"
         id="path208" />
    </clipPath>
    <clipPath
       clipPathUnits="userSpaceOnUse"
       id="clipPath216">
      <path
         d="M 0,0 H 512 V 512 H 0 Z"
         id="path214" />
    </clipPath>
    <clipPath
       clipPathUnits="userSpaceOnUse"
       id="clipPath226">
      <path
         d="M 310.6214,362 424.7089,162.0939 H 310.6961 l -57.0086,99.4988 z"
         clip-rule="evenodd"
         id="path224" />
    </clipPath>
    <clipPath
       clipPathUnits="userSpaceOnUse"
       id="clipPath232">
      <path
         d="M 0,0 H 512 V 512 H 0 Z"
         id="path230" />
    </clipPath>
    <clipPath
       clipPathUnits="userSpaceOnUse"
       id="clipPath242">
      <path
         d="M 197.1006,362 83.51535,162.0939 H 197.1006 L 310.6214,362 Z"
         clip-rule="evenodd"
         id="path240" />
    </clipPath>
    <clipPath
       clipPathUnits="userSpaceOnUse"
       id="clipPath248">
      <path
         d="M 0,0 H 512 V 512 H 0 Z"
         id="path246" />
    </clipPath>
    <clipPath
       clipPathUnits="userSpaceOnUse"
       id="clipPath1">
      <path
         d="M 64.09713,512 H 447.9029 c 22.2879,0 30.3701,-2.3206 38.5182,-6.6783 8.1482,-4.3577 14.5429,-10.7524 18.9006,-18.9006 C 509.6794,478.273 512,470.1908 512,447.9029 V 64.09713 C 512,41.80916 509.6794,33.72701 505.3217,25.57886 500.964,17.43071 494.5693,11.03599 486.4211,6.678318 478.273,2.32064 470.1908,0 447.9029,0 H 64.09713 C 41.80916,0 33.72701,2.32064 25.57886,6.678318 17.43071,11.03599 11.03599,17.43071 6.678318,25.57886 2.32064,33.72701 0,41.80916 0,64.09713 V 447.9029 c 0,22.2879 2.32064,30.3701 6.678318,38.5182 4.357672,8.1482 10.752392,14.5429 18.900542,18.9006 8.14815,4.3577 16.2303,6.6783 38.51827,6.6783 z"
         clip-rule="evenodd"
         id="path1" />
    </clipPath>
    <clipPath
       clipPathUnits="userSpaceOnUse"
       id="clipPath2">
      <path
         d="M 0,0 H 512 V 512 H 0 Z"
         id="path2" />
    </clipPath>
    <clipPath
       clipPathUnits="userSpaceOnUse"
       id="clipPath3">
      <path
         d="M 310.6214,362 424.7089,162.0939 H 310.6961 l -57.0086,99.4988 z"
         clip-rule="evenodd"
         id="path3" />
    </clipPath>
    <clipPath
       clipPathUnits="userSpaceOnUse"
       id="clipPath4">
      <path
         d="M 0,0 H 512 V 512 H 0 Z"
         id="path4" />
    </clipPath>
    <clipPath
       clipPathUnits="userSpaceOnUse"
       id="clipPath5">
      <path
         d="M 197.1006,362 83.51535,162.0939 H 197.1006 L 310.6214,362 Z"
         clip-rule="evenodd"
         id="path5" />
    </clipPath>
    <clipPath
       clipPathUnits="userSpaceOnUse"
       id="clipPath6">
      <path
         d="M 0,0 H 512 V 512 H 0 Z"
         id="path6" />
    </clipPath>
  </defs>
  <sodipodi:namedview
     id="namedview1"
     pagecolor="#ffffff"
     bordercolor="#000000"
     borderopacity="0.25"
     inkscape:showpageshadow="2"
     inkscape:pageopacity="0.0"
     inkscape:pagecheckerboard="0"
     inkscape:deskcolor="#d1d1d1"
     inkscape:zoom="4.8005922"
     inkscape:cx="63.533829"
     inkscape:cy="61.763214"
     inkscape:window-width="1920"
     inkscape:window-height="1120"
     inkscape:window-x="0"
     inkscape:window-y="0"
     inkscape:window-maximized="1"
     inkscape:current-layer="svg1" />
  <g
     id="g3"
     transform="matrix(3.2989845,0,0,3.2989845,-3.6650442,0.39317732)">
    <g
       id="g1"
       transform="matrix(0.313028,0,0,0.313028,20.157087,20.573703)">
      <g
         id="ic_DocumentType">
        <path
           id="Combined-Shape"
           d="m 18,5 v 4 h 4 m -9,4.75 5,0.129 m -5,2.871 h 3 m -3,3 h 1 m -1,3 h 4 M 23.002,5 26,8 V 24 H 25 M 8,5 h 10 l 4,4 v 16 a 2,2 0 0 1 -2,2 H 8 A 2,2 0 0 1 6,25 V 7 A 2,2 0 0 1 8,5 Z"
           stroke="#111619"
           stroke-width="1.5"
           stroke-linecap="round"
           stroke-linejoin="round" />
        <path
           id="Combined-Shape_2"
           fill-rule="evenodd"
           clip-rule="evenodd"
           d="m 9.75,13 a 0.75,0.75 0 1 1 0,1.5 0.75,0.75 0 0 1 0,-1.5 z m 0,3 a 0.75,0.75 0 1 1 0,1.5 0.75,0.75 0 0 1 0,-1.5 z m 0,3 a 0.75,0.75 0 1 1 0,1.5 0.75,0.75 0 0 1 0,-1.5 z m 0,3 a 0.75,0.75 0 1 1 0,1.5 0.75,0.75 0 0 1 0,-1.5 z"
           fill="#111619" />
      </g>
      <text
         xml:space="preserve"
         style="font-size:12.8432px;font-family:'Blogger Sans';-inkscape-font-specification:'Blogger Sans';text-align:start;writing-mode:lr-tb;direction:ltr;text-anchor:start;fill:#55d400;stroke-width:0.133783"
         x="8.5294123"
         y="15.499739"
         id="text1-6"><tspan
           sodipodi:role="line"
           id="tspan1-3"
           x="8.5294123"
           y="15.499739"
           style="fill:#55d400;stroke-width:0.133783">?</tspan></text>
    </g>
    <g
       id="g2"
       transform="matrix(0.41263512,0,0,0.41215382,43.820654,4.5895689)">
      <g
         id="g418"
         transform="matrix(0.09202039,0,0,-0.09202039,-90.979145,37.508004)">
        <g
           id="g340" />
        <g
           id="g348">
          <g
             id="g346"
             clip-path="url(#clipPath210)">
            <g
               id="g344"
               clip-path="url(#clipPath216)">
              <path
                 d="M -1,513 H 513 V -1 H -1 Z"
                 style="fill:#f6b102;fill-opacity:1;fill-rule:nonzero;stroke:none"
                 id="path342" />
            </g>
          </g>
        </g>
        <g
           id="g356">
          <g
             id="g354"
             clip-path="url(#clipPath226)">
            <g
               id="g352"
               clip-path="url(#clipPath232)">
              <path
                 d="M 252.6875,363 H 425.7089 V 161.0939 H 252.6875 Z"
                 style="fill:#fdebbf;fill-opacity:1;fill-rule:nonzero;stroke:none"
                 id="path350" />
            </g>
          </g>
        </g>
        <g
           id="g364">
          <g
             id="g362"
             clip-path="url(#clipPath242)">
            <g
               id="g360"
               clip-path="url(#clipPath248)">
              <path
                 d="M 82.51535,363 H 311.6214 V 161.0939 H 82.51535 Z"
                 style="fill:#ffffff;fill-opacity:1;fill-rule:nonzero;stroke:none"
                 id="path358" />
            </g>
          </g>
        </g>
        <g
           id="g366" />
        <g
           id="g374">
          <g
             id="g372"
             clip-path="url(#clipPath210)">
            <g
               id="g370"
               clip-path="url(#clipPath216)">
              <path
                 d="M -1,513 H 513 V -1 H -1 Z"
                 style="fill:#f6b102;fill-opacity:1;fill-rule:nonzero;stroke:none"
                 id="path368" />
            </g>
          </g>
        </g>
        <g
           id="g382">
          <g
             id="g380"
             clip-path="url(#clipPath226)">
            <g
               id="g378"
               clip-path="url(#clipPath232)">
              <path
                 d="M 252.6875,363 H 425.7089 V 161.0939 H 252.6875 Z"
                 style="fill:#fdebbf;fill-opacity:1;fill-rule:nonzero;stroke:none"
                 id="path376" />
            </g>
          </g>
        </g>
        <g
           id="g390">
          <g
             id="g388"
             clip-path="url(#clipPath242)">
            <g
               id="g386"
               clip-path="url(#clipPath248)">
              <path
                 d="M 82.51535,363 H 311.6214 V 161.0939 H 82.51535 Z"
                 style="fill:#ffffff;fill-opacity:1;fill-rule:nonzero;stroke:none"
                 id="path384" />
            </g>
          </g>
        </g>
      </g>
      <g
         id="g842"
         transform="matrix(0.25467266,0,0,0.25467266,-99.655005,-10.684283)">
        <path
           inkscape:connector-curvature="0"
           d="M 52.910441,219.10966 V 200.93348 H 26.180765 c -1.777523,0 -3.20756,1.43003 -3.20756,3.20756 v 62.01285 c 0,1.77752 1.430037,3.20756 3.20756,3.20756 h 44.905857 c 1.777522,0 3.207553,-1.43004 3.207553,-3.20756 V 222.31722 H 56.117998 c -1.764154,0 -3.207557,-1.4434 -3.207557,-3.20756 z m -21.383739,-8.55349 c 0,-0.59073 0.478458,-1.0692 1.069186,-1.0692 h 10.69187 c 0.590725,0 1.069187,0.47847 1.069187,1.0692 v 2.13836 c 0,0.59073 -0.478462,1.06919 -1.069187,1.06919 h -10.69187 c -0.590728,0 -1.069186,-0.47846 -1.069186,-1.06919 z m 0,8.55349 c 0,-0.59072 0.478458,-1.06918 1.069186,-1.06918 h 10.69187 c 0.590725,0 1.069187,0.47846 1.069187,1.06918 v 2.13837 c 0,0.59073 -0.478462,1.06919 -1.069187,1.06919 h -10.69187 c -0.590728,0 -1.069186,-0.47846 -1.069186,-1.06919 z m 25.76874,33.14479 h 6.306869 c 1.181448,0 2.138375,0.95693 2.138375,2.13838 0,1.18145 -0.956927,2.13837 -2.138375,2.13837 h -6.306869 c -2.198516,0 -4.179184,-1.22154 -5.164172,-3.18885 -0.394263,-0.7912 -1.081214,-0.87138 -1.359203,-0.87138 -0.277989,0 -0.964939,0.0789 -1.339158,0.82727 l -1.025081,2.05017 a 2.136503,2.136503 0 0 1 -1.912509,1.18146 c -0.05078,0 -0.100236,-0.003 -0.152358,-0.007 -0.862033,-0.0601 -1.603783,-0.63484 -1.875088,-1.45542 l -2.249302,-6.74392 -1.418011,4.26072 c -0.787188,2.36023 -2.991051,3.94664 -5.479581,3.94664 h -1.655903 c -1.181453,0 -2.138374,-0.95693 -2.138374,-2.13838 0,-1.18144 0.956921,-2.13837 2.138374,-2.13837 h 1.655903 c 0.645522,0 1.217536,-0.41164 1.422019,-1.02376 l 2.431064,-7.30254 c 0.441037,-1.31108 1.662587,-2.19316 3.044509,-2.19316 1.381922,0 2.603469,0.88074 3.043176,2.19316 l 1.855038,5.56513 c 2.642228,-2.16377 7.223693,-1.2964 8.820788,1.89246 0.269971,0.54261 0.796545,0.86871 1.357869,0.86871 z m 16.0632,-37.28789 -13.084176,-13.09754 c -0.601421,-0.60142 -1.416673,-0.93554 -2.272025,-0.93554 H 57.18719 v 17.107 h 17.106985 v -0.81526 c 0,-0.84199 -0.334113,-1.65725 -0.935533,-2.25866 z"
           id="path939"
           style="stroke-width:0.133649" />
        <path
           inkscape:connector-curvature="0"
           d="m 217.32996,235.47982 h -25.66049 v 8.5535 h 25.66049 z m 11.89471,-20.1809 -13.08417,-13.09755 c -0.60143,-0.60142 -1.41668,-0.93553 -2.27203,-0.93553 h -0.81526 v 17.107 h 17.107 v -0.81527 c 0,-0.84198 -0.33412,-1.65724 -0.93554,-2.25865 z m -20.44821,4.14309 v -18.17617 h -26.72967 c -1.77752,0 -3.20756,1.43003 -3.20756,3.20756 v 62.01284 c 0,1.77753 1.43004,3.20757 3.20756,3.20757 h 44.90585 c 1.77754,0 3.20757,-1.43004 3.20757,-3.20757 v -43.83666 h -18.17618 c -1.76416,0 -3.20757,-1.4434 -3.20757,-3.20757 z m -21.38374,-8.55349 c 0,-0.59072 0.47847,-1.06919 1.06919,-1.06919 h 10.69187 c 0.59072,0 1.06919,0.47847 1.06919,1.06919 v 2.13837 c 0,0.59072 -0.47847,1.06919 -1.06919,1.06919 h -10.69187 c -0.59072,0 -1.06919,-0.47847 -1.06919,-1.06919 z m 0,8.55349 c 0,-0.59072 0.47847,-1.06917 1.06919,-1.06917 h 10.69187 c 0.59072,0 1.06919,0.47845 1.06919,1.06917 v 2.13837 c 0,0.59074 -0.47847,1.0692 -1.06919,1.0692 h -10.69187 c -0.59072,0 -1.06919,-0.47846 -1.06919,-1.0692 z m 34.214,40.62911 c 0,0.59073 -0.47847,1.06919 -1.0692,1.06919 h -10.69187 c -0.59073,0 -1.06919,-0.47846 -1.06919,-1.06919 v -2.13838 c 0,-0.59072 0.47846,-1.06918 1.06919,-1.06918 h 10.69187 c 0.59073,0 1.0692,0.47846 1.0692,1.06918 z m 0,-26.72968 v 12.83025 c 0,1.18146 -0.95694,2.13837 -2.13839,2.13837 H 189.5311 c -1.18146,0 -2.13838,-0.95691 -2.13838,-2.13837 v -12.83025 c 0,-1.18144 0.95692,-2.13836 2.13838,-2.13836 h 29.93723 c 1.18145,0 2.13839,0.95692 2.13839,2.13836 z"
           id="path929"
           style="stroke-width:0.133649" />
        <g
           transform="matrix(-1.0230845,0.63123138,-0.63123138,-1.0230845,178.17368,253.10654)"
           id="g2236">
          <title
             id="title2233">Layer 1</title>
          <path
             style="fill:#7fff00;fill-rule:evenodd;stroke:#333333;stroke-width:1.80091;stroke-linecap:round;stroke-linejoin:round"
             inkscape:connector-curvature="0"
             d="M 54.659,51.7509 C 40.969799,21.7231 17.786699,28.7885 17.565799,28.7885 v 9.935598 L 4.207919,22.716699 17.6762,9.24837 v 10.046029 c 0,0 32.125298,-7.506899 36.9828,32.456501 z"
             id="path968" />
        </g>
      </g>
    </g>
    <path
       inkscape:connector-curvature="0"
       d="M 7.3902301,23.759214 V 21.703103 H 4.3665377 c -0.2010756,0 -0.3628428,0.161767 -0.3628428,0.362843 v 7.014967 c 0,0.201075 0.1617672,0.362843 0.3628428,0.362843 h 5.0798034 c 0.2010762,0 0.3628421,-0.161768 0.3628421,-0.362843 V 24.122057 H 7.7530729 c -0.1995632,0 -0.3628428,-0.163279 -0.3628428,-0.362843 z m -2.4189534,-0.96758 c 0,-0.06682 0.054124,-0.12095 0.1209474,-0.12095 h 1.2094768 c 0.066824,0 0.1209479,0.05413 0.1209479,0.12095 v 0.241894 c 0,0.06682 -0.054124,0.120948 -0.1209479,0.120948 H 5.0922241 c -0.066824,0 -0.1209474,-0.05413 -0.1209474,-0.120948 z m 0,0.96758 c 0,-0.06682 0.054124,-0.120947 0.1209474,-0.120947 h 1.2094768 c 0.066824,0 0.1209479,0.05413 0.1209479,0.120947 v 0.241895 c 0,0.06682 -0.054124,0.120948 -0.1209479,0.120948 H 5.0922241 c -0.066824,0 -0.1209474,-0.05412 -0.1209474,-0.120948 z m 2.9149901,3.749378 h 0.7134405 c 0.1336467,0 0.2418953,0.108249 0.2418953,0.241896 0,0.133647 -0.1082486,0.241895 -0.2418953,0.241895 H 7.8862668 c -0.2486988,0 -0.4727542,-0.138183 -0.5841775,-0.360726 -0.0446,-0.0895 -0.122308,-0.09857 -0.1537546,-0.09857 -0.031448,0 -0.109155,0.0089 -0.1514871,0.09358 l -0.1159581,0.231917 a 0.24168373,0.24168373 0 0 1 -0.2163454,0.133648 c -0.00575,0 -0.011339,-3.38e-4 -0.017235,-7.69e-4 -0.097514,-0.0068 -0.1814217,-0.07182 -0.2121119,-0.164639 L 6.180753,27.063943 6.0203459,27.545921 c -0.089048,0.266992 -0.3383511,0.446448 -0.6198566,0.446448 H 5.2131721 c -0.1336477,0 -0.2418954,-0.108248 -0.2418954,-0.241896 0,-0.133645 0.1082477,-0.241894 0.2418954,-0.241894 h 0.1873176 c 0.073022,0 0.1377292,-0.04656 0.1608604,-0.115809 l 0.2750047,-0.826073 c 0.049891,-0.14831 0.1880739,-0.248092 0.3443987,-0.248092 0.1563246,0 0.2945075,0.09963 0.3442472,0.248092 l 0.2098442,0.629535 c 0.2988918,-0.244769 0.8171528,-0.146651 0.9978179,0.214077 0.030542,0.06138 0.090106,0.09827 0.153604,0.09827 z m 1.8170883,-4.21805 -1.4800977,-1.481609 c -0.068033,-0.06803 -0.1602557,-0.10583 -0.2570142,-0.10583 h -0.092222 v 1.935164 h 1.9351619 v -0.09222 c 0,-0.09525 -0.037797,-0.18747 -0.1058281,-0.255502 z"
       id="path939-7"
       style="fill:#008000;stroke-width:0.0151186" />
  </g>
</svg>
